<svg xmlns="http://www.w3.org/2000/svg" version="1.1" xmlns:xlink="http://www.w3.org/1999/xlink" xmlns:svgjs="http://svgjs.dev/svgjs" width="1500" height="1500" viewBox="0 0 1500 1500"><rect width="1500" height="1500" fill="#ede1d1"></rect><g transform="matrix(0.6666666666666666,0,0,0.6666666666666666,249.50000000000006,249.50000000000006)"><svg viewBox="0 0 280 280" data-background-color="#ede1d1" preserveAspectRatio="xMidYMid meet" height="1500" width="1500" xmlns="http://www.w3.org/2000/svg" xmlns:xlink="http://www.w3.org/1999/xlink"><g id="tight-bounds" transform="matrix(1,0,0,1,0.13999999999998636,0.13999999999998636)"><svg viewBox="0 0 279.72 279.72" height="279.72" width="279.72"><g><svg viewBox="0 0 279.72 279.72" height="279.72" width="279.72"><g><svg viewBox="0 0 279.72 279.72" height="279.72" width="279.72"><g id="textblocktransform"><svg viewBox="0 0 279.72 279.72" height="279.72" width="279.72" id="textblock"><g><svg viewBox="0 0 279.72 279.72" height="279.72" width="279.72"><g transform="matrix(1,0,0,1,100.37941249439459,73.92936372216631)"><svg viewBox="0 0 78.96117501121084 131.8612725556674" height="131.8612725556674" width="78.96117501121084"><g id="icon-0"><svg xmlns="http://www.w3.org/2000/svg" xmlns:xlink="http://www.w3.org/1999/xlink" version="1.1" x="0" y="0" viewBox="24.799999999999997 11.1 40.599999999999994 67.80000000000001" enable-background="new 0 0 90 90" xml:space="preserve" height="131.8612725556674" width="78.96117501121084" class="icon-xg-0" data-fill-palette-color="accent" id="xg-0"><path d="M62.6 58H27.4h-2.6v2.3 18.6h2.6V60.3h5.6v4 8.1 1.6h0v3.6h11.4 1.4 11.4v-2.9h0V60.3h5.6v18.6h2.6V60.3 58H62.6zM34.7 60.3c-0.2 0.2-0.3 0.4-0.5 0.6v-0.6H34.7zM34.2 64.1c0.3-1.7 1.3-3 2.6-3.8h4.7c1.4 0.8 2.5 2.2 2.7 4h0v5.4c-1.2-1.5-3-2.4-4.9-2.4-2.1 0-3.9 1-5.1 2.6V64.1zM44.3 72.7v0.4h-10c0.3-2.6 2.4-4.6 5-4.6C41.8 68.6 43.8 70.3 44.3 72.7zM44.3 74.6v1.6h-10v-1.7L44.3 74.6 44.3 74.6zM43.7 60.3h2.5c-0.5 0.5-0.9 1.1-1.2 1.8C44.6 61.4 44.2 60.8 43.7 60.3zM45.6 64.3c0.2-1.7 1.2-3.2 2.7-4H53c1.4 0.8 2.5 2.2 2.7 4v5.6c-1.2-1.6-3-2.6-5.1-2.6-2.1 0-3.9 1.1-5.1 2.7V64.3zM45.7 73.2c0.3-2.6 2.4-4.6 5-4.6s4.7 2 5 4.6H45.7zM55.8 76.1h-10v-1.6h10V76.1zM55.8 61c-0.2-0.2-0.4-0.5-0.6-0.7h0.6V61zM45.2 37.3L45.2 37.3c6.7 0 12.2-5.5 12.2-12.3 0-2.9-0.8-4.5-1.5-5.4 0 0-0.1-0.1-0.2-0.3l-0.1-0.1c-0.9-0.9-3.8-2.9-10.4-2.9 0 0-0.1 0-0.3 0-2 0-8.5 0.2-10.5 3.3C33.8 20.5 33 22.1 33 25 33 31.8 38.5 37.3 45.2 37.3zM35.2 20.2L35.2 20.2c1.8-2.8 8.4-2.9 9.8-2.9 0.2 0 0.3 0 0.3 0 6.5 0 9.1 2.1 9.8 2.7l0.1 0.1c0.1 0.1 0.2 0.2 0.2 0.2 0.5 0.6 1.3 2 1.3 4.8 0 6.3-5.1 11.5-11.3 11.5h0c-6.2 0-11.3-5.1-11.3-11.5C33.9 22.2 34.7 20.8 35.2 20.2zM31 57.8l1-1c-3.6-3.1-5-7.1-4.2-11.7 0.4-2.2 1.1-3.9 1.7-5 0.1-0.1 0.1-0.2 0.2-0.4 1-2 2.6-3.7 4.5-5.1 2.7 3.1 6.7 5 11.1 5 4.3 0 8.3-1.9 10.9-4.8 1.8 1.4 3.2 3 4.2 4.9 0.1 0.1 0.1 0.3 0.2 0.4 0.5 1.1 1.3 2.9 1.7 5 0.8 4.6-0.7 8.6-4.2 11.7l1 1c6.9-6 4.8-13.6 3.2-17.4V27c0-1.1-0.9-2-2-2h-0.4c-0.2-7.7-6.7-13.9-14.6-13.9-7.9 0-14.4 6.2-14.6 13.9h-0.4c-1.1 0-2 0.9-2 2v12.5C26.5 42.8 23.5 51.3 31 57.8zM60.2 26.3c0.4 0 0.7 0.3 0.7 0.7v11c-1-1.6-2.3-3-3.9-4.2 1.6-2.1 2.6-4.7 2.8-7.4H60.2zM45.2 12.5c7.3 0 13.2 5.8 13.2 12.9 0 7.1-5.9 12.9-13.2 12.9-7.3 0-13.2-5.8-13.2-12.9C32 18.3 37.9 12.5 45.2 12.5zM29.5 27c0-0.4 0.3-0.7 0.7-0.7h0.5c0.2 2.7 1.1 5.1 2.6 7.2-1.5 1.1-2.7 2.4-3.8 3.8V27zM56.9 55.9V40c0-0.6-0.4-1.1-1-1.1H34c-0.5 0-1 0.5-1 1.1v15.8h-3.2v1.3c0 0.6 0.4 1.1 1 1.1H34h22 3.3c0.5 0 1-0.5 1-1.1v-1.3H56.9zM45 50.1c-1 0-1.7-0.8-1.7-1.7 0-1 0.8-1.7 1.7-1.7 1 0 1.7 0.8 1.7 1.7C46.7 49.3 46 50.1 45 50.1z" fill="#412e27" data-fill-palette-color="accent"></path></svg></g></svg></g><g id="text-0"><path d="M25.379 104.365v0c-0.304-0.489-0.684-0.894-1.138-1.216-0.454-0.322-0.914-0.553-1.381-0.695v0c-0.823-0.25-1.533-0.274-2.131-0.074-0.598 0.2-1.132 0.512-1.6 0.937v0c-0.476 0.45-0.904 0.95-1.283 1.499-0.379 0.55-0.768 1.061-1.166 1.535v0c-0.365 0.455-0.765 0.818-1.201 1.089-0.438 0.277-0.942 0.33-1.512 0.157v0c-0.44-0.134-0.793-0.325-1.056-0.576-0.264-0.25-0.465-0.52-0.603-0.809v0c-0.103-0.314-0.146-0.66-0.131-1.037 0.015-0.377 0.074-0.734 0.177-1.071v0c0.134-0.44 0.311-0.839 0.532-1.196 0.222-0.357 0.491-0.686 0.809-0.986v0l2.021 0.613 0.448-1.476-2.837-0.861c-0.312 0.188-0.599 0.412-0.862 0.672-0.263 0.26-0.51 0.538-0.742 0.836v0c-0.249 0.377-0.44 0.715-0.573 1.014-0.133 0.299-0.251 0.617-0.353 0.954v0c-0.142 0.466-0.214 0.996-0.217 1.589 0.005 0.589 0.113 1.141 0.324 1.659v0c0.211 0.517 0.525 0.973 0.943 1.368 0.418 0.396 0.976 0.699 1.676 0.912v0c0.855 0.26 1.575 0.287 2.16 0.083 0.585-0.204 1.09-0.539 1.515-1.005v0c0.422-0.459 0.818-0.972 1.188-1.538 0.37-0.567 0.75-1.074 1.141-1.522v0c0.372-0.481 0.791-0.835 1.256-1.062 0.465-0.227 1.031-0.239 1.699-0.036v0c0.466 0.142 0.836 0.346 1.108 0.612 0.273 0.267 0.482 0.578 0.629 0.934v0c0.139 0.382 0.211 0.772 0.218 1.17 0.006 0.398-0.049 0.791-0.167 1.18v0c-0.173 0.57-0.383 1.1-0.631 1.591-0.246 0.484-0.599 0.925-1.06 1.323v0l-1.982-0.601-0.436 1.437 2.837 0.862c0.751-0.423 1.343-1 1.777-1.732 0.432-0.725 0.774-1.502 1.026-2.33v0c0.267-0.881 0.351-1.669 0.251-2.365-0.1-0.695-0.325-1.308-0.673-1.838z" fill="#6a704c" data-fill-palette-color="primary"></path><path d="M38.831 76.491v0c-0.27-0.974-0.704-1.884-1.302-2.73-0.592-0.843-1.365-1.549-2.317-2.119v0c-0.93-0.556-1.92-0.904-2.972-1.044-1.052-0.14-2.071-0.098-3.056 0.125v0c-0.979 0.266-1.903 0.716-2.77 1.349-0.862 0.636-1.577 1.431-2.147 2.384v0c-0.57 0.953-0.927 1.953-1.073 3.002-0.136 1.046-0.083 2.052 0.16 3.017v0c0.252 1.003 0.693 1.928 1.32 2.777 0.628 0.849 1.407 1.551 2.337 2.107v0c0.953 0.57 1.943 0.925 2.971 1.066 1.033 0.145 2.04 0.084 3.019-0.182v0c0.989-0.229 1.902-0.649 2.74-1.26 0.842-0.617 1.555-1.413 2.139-2.389v0c0.57-0.953 0.934-1.958 1.092-3.014 0.159-1.057 0.112-2.086-0.141-3.089zM32.594 84.628v0c-0.757 0.21-1.541 0.262-2.352 0.155-0.817-0.11-1.61-0.394-2.377-0.853v0c-0.744-0.445-1.357-1.001-1.841-1.669-0.484-0.668-0.836-1.399-1.055-2.192v0c-0.2-0.774-0.245-1.57-0.135-2.387 0.11-0.817 0.388-1.598 0.833-2.342v0c0.445-0.744 1.004-1.363 1.679-1.859 0.675-0.496 1.402-0.842 2.182-1.038v0c0.817-0.206 1.634-0.253 2.451-0.143 0.814 0.116 1.593 0.396 2.337 0.841v0c0.767 0.458 1.394 1.019 1.881 1.681 0.478 0.664 0.797 1.391 0.956 2.18v0c0.22 0.794 0.271 1.605 0.154 2.434-0.117 0.829-0.398 1.615-0.843 2.359v0c-0.445 0.744-1.001 1.357-1.668 1.842-0.668 0.484-1.402 0.814-2.202 0.991z" fill="#6a704c" data-fill-palette-color="primary"></path><path d="M59.747 50.629v0l1.253 1.331 1.506 1.482 3.165-2.978-1.002-1.065-2.1 1.976-9.429-10.018-3.394 3.194 1.086 1.153 2.181-2.053 4.62 4.91c0.557 0.592 0.946 1.252 1.169 1.982 0.232 0.73 0.298 1.458 0.199 2.182v0c-0.081 0.783-0.3 1.528-0.656 2.236-0.357 0.707-0.841 1.349-1.452 1.924v0c-0.865 0.74-1.728 1.078-2.588 1.013-0.86-0.064-1.616-0.403-2.268-1.016v0l-7.23-7.683-3.394 3.195 1.086 1.153 2.188-2.06 6.451 6.854c0.967 0.949 2.052 1.434 3.253 1.456 1.206 0.017 2.352-0.484 3.436-1.504v0c1.084-1.021 1.801-2.225 2.149-3.613 0.349-1.388 0.272-2.738-0.229-4.051z" fill="#6a704c" data-fill-palette-color="primary"></path><path d="M93.029 45.977l6.991-3.523-0.713-1.414-2.466 1.242-9.989-19.82 2.72-1.371-0.713-1.415-3.917 1.975c0.256 0.568 0.512 1.137 0.768 1.704 0.256 0.568 0.5 1.112 0.732 1.633v0c-0.929-0.775-2.066-1.248-3.41-1.42-1.342-0.165-2.726 0.112-4.153 0.831v0c-1.016 0.512-1.863 1.162-2.541 1.951-0.67 0.792-1.166 1.679-1.49 2.662v0c-0.324 0.982-0.451 1.993-0.381 3.034 0.07 1.041 0.349 2.045 0.836 3.013v0c0.487 0.967 1.13 1.792 1.929 2.473 0.801 0.688 1.687 1.181 2.657 1.481v0c0.97 0.3 1.975 0.422 3.016 0.367 1.047-0.058 2.079-0.343 3.094-0.855v0c0.701-0.353 1.32-0.779 1.858-1.277 0.537-0.498 0.981-1.032 1.33-1.603v0c0.325-0.558 0.553-1.113 0.685-1.664 0.125-0.548 0.175-1.089 0.149-1.621v0c0.11 0.278 0.22 0.541 0.329 0.789 0.11 0.248 0.226 0.493 0.348 0.734v0l4.62 9.167-3.002 1.513zM79.606 25.841v0c0.774-0.39 1.569-0.617 2.386-0.68 0.817-0.063 1.614 0.013 2.39 0.228v0c0.776 0.276 1.486 0.684 2.129 1.224 0.65 0.537 1.175 1.204 1.577 2.002v0c0.402 0.798 0.629 1.608 0.68 2.432 0.054 0.814-0.045 1.603-0.297 2.367v0c-0.276 0.776-0.685 1.482-1.228 2.12-0.543 0.637-1.201 1.151-1.975 1.541v0c-0.774 0.39-1.56 0.62-2.359 0.688-0.799 0.069-1.571-0.012-2.317-0.242v0c-0.8-0.264-1.531-0.661-2.192-1.192-0.659-0.525-1.195-1.198-1.61-2.02v0c-0.402-0.798-0.632-1.615-0.688-2.45-0.057-0.835 0.052-1.641 0.328-2.417v0c0.234-0.724 0.616-1.402 1.147-2.033 0.531-0.631 1.207-1.154 2.029-1.568z" fill="#6a704c" data-fill-palette-color="primary"></path><path d="M139.73 25.122l4.986-0.006-0.002-1.584-3.33 0.004-0.014-12.012 4.711-0.005-0.001-1.625-4.712 0.006-0.011-9.9-1.655 0.002 0.011 9.9-3.533 0.003 0.002 1.625 3.533-0.004z" fill="#6a704c" data-fill-palette-color="primary"></path><path d="M175.908 30.746l4.366 1.122 0.394-1.534-2.91-0.748 3.393-13.208-1.298-0.333c-0.201 0.563-0.39 1.137-0.568 1.72-0.178 0.583-0.338 1.15-0.479 1.701v0c-0.176-1.136-0.719-2.219-1.628-3.249-0.911-1.024-2.14-1.735-3.688-2.132v0c-1.101-0.283-2.169-0.344-3.203-0.184-1.029 0.169-1.985 0.503-2.868 1.004v0c-0.89 0.526-1.653 1.211-2.289 2.053-0.636 0.843-1.085 1.776-1.348 2.799v0c-0.276 1.075-0.335 2.119-0.175 3.131 0.158 1.019 0.499 1.973 1.025 2.864v0c0.526 0.89 1.201 1.65 2.024 2.281 0.83 0.633 1.796 1.09 2.897 1.373v0c0.787 0.202 1.555 0.288 2.304 0.257 0.749-0.031 1.446-0.16 2.09-0.386v0c0.612-0.206 1.164-0.477 1.656-0.811 0.485-0.337 0.88-0.717 1.184-1.143v0c-0.088 0.341-0.167 0.649-0.237 0.925-0.071 0.275-0.147 0.57-0.228 0.885v0zM173.088 15.648v0c0.839 0.216 1.587 0.569 2.244 1.059 0.657 0.49 1.203 1.085 1.639 1.784v0c0.409 0.692 0.678 1.453 0.807 2.283 0.136 0.832 0.092 1.68-0.13 2.546v0c-0.222 0.865-0.593 1.63-1.113 2.293-0.512 0.658-1.127 1.189-1.845 1.591v0c-0.692 0.409-1.444 0.67-2.256 0.783-0.812 0.113-1.637 0.062-2.477-0.154v0c-0.839-0.216-1.576-0.559-2.209-1.029-0.634-0.47-1.156-1.038-1.565-1.702v0c-0.462-0.706-0.765-1.483-0.911-2.331-0.147-0.842-0.106-1.708 0.123-2.6v0c0.216-0.839 0.569-1.587 1.059-2.244 0.49-0.657 1.081-1.19 1.774-1.599v0c0.666-0.444 1.42-0.725 2.261-0.844 0.841-0.119 1.708-0.064 2.599 0.164z" fill="#6a704c" data-fill-palette-color="primary"></path><path d="M194.862 38.387l6.884 3.728 0.754-1.393-2.785-1.508 13.735-25.367-3.991-2.161-0.754 1.393 2.536 1.373-12.982 23.973-2.642-1.431z" fill="#6a704c" data-fill-palette-color="primary"></path><path d="M230.079 46.259v0c0.79 0.7 1.312 1.551 1.565 2.552 0.252 1.001 0.256 2.008 0.01 3.02v0c-1.863-0.674-3.716-1.348-5.56-2.022-1.844-0.675-3.695-1.347-5.553-2.016v0c0.469-0.815 1.076-1.48 1.821-1.995 0.746-0.515 1.554-0.857 2.427-1.024v0c0.905-0.175 1.821-0.142 2.746 0.099 0.926 0.241 1.774 0.703 2.544 1.386zM226.044 58.839v0l0.048-1.586c-0.785 0.028-1.549-0.088-2.294-0.35-0.745-0.262-1.431-0.671-2.06-1.227v0c-0.953-0.844-1.588-1.841-1.908-2.992-0.314-1.146-0.303-2.276 0.032-3.389v0c2.146 0.752 4.274 1.52 6.383 2.303 2.109 0.783 4.23 1.559 6.363 2.326v0c0.336-0.788 0.571-1.583 0.704-2.388 0.139-0.8 0.157-1.57 0.054-2.312v0c-0.087-0.8-0.32-1.558-0.699-2.274-0.384-0.71-0.889-1.344-1.517-1.9v0c-0.831-0.736-1.743-1.268-2.737-1.596-0.993-0.319-1.996-0.457-3.01-0.415v0c-1.014 0.042-1.996 0.294-2.947 0.754-0.95 0.46-1.785 1.096-2.502 1.907v0c-0.736 0.831-1.264 1.733-1.584 2.707-0.324 0.979-0.455 1.984-0.393 3.016v0c0.063 1.032 0.316 2.016 0.762 2.953 0.45 0.941 1.091 1.78 1.922 2.516v0c0.79 0.7 1.646 1.205 2.566 1.513 0.92 0.309 1.859 0.453 2.817 0.434z" fill="#6a704c" data-fill-palette-color="primary"></path><path d="M236.221 73.513l4.233 6.585 1.333-0.857-1.626-2.528 5.663-3.64c0.683-0.439 1.401-0.7 2.153-0.781 0.752-0.081 1.506-0.011 2.261 0.212v0c0.703 0.192 1.373 0.534 2.011 1.025 0.638 0.491 1.184 1.09 1.638 1.796v0c0.569 0.986 0.744 1.896 0.523 2.729-0.224 0.828-0.697 1.506-1.419 2.036v0l-7.542 4.848-1.708-2.656-1.332 0.856 4.233 6.585 1.333-0.856-1.626-2.528 7.918-5.09c1.109-0.778 1.783-1.758 2.02-2.941 0.235-1.173-0.049-2.386-0.854-3.639v0c-0.82-1.275-1.879-2.204-3.179-2.785-1.305-0.578-2.639-0.75-4.002-0.517v0c0.373-0.272 0.705-0.518 0.998-0.738 0.293-0.22 0.626-0.467 0.998-0.738v0l1.208-0.825-2.301-3.579-1.332 0.857 1.581 2.459-10.138 6.518-1.713-2.665z" fill="#6a704c" data-fill-palette-color="primary"></path><path d="M253.961 107.726l1.557 4.736 1.505-0.495-1.04-3.164 11.41-3.752 1.472 4.475 1.543-0.508-1.472-4.475 9.405-3.093-0.517-1.572-9.405 3.093-1.104-3.357-1.543 0.508 1.104 3.356z" fill="#6a704c" data-fill-palette-color="primary"></path><path d="M0.426 146.017c0-6.42 5.204-11.624 11.625-11.625 6.42 0 11.624 5.204 11.624 11.625 0 6.42-5.204 11.624-11.624 11.624-6.42 0-11.624-5.204-11.625-11.624z" fill="#6a704c" data-fill-palette-color="primary"></path><path d="M256.045 146.017c0-6.42 5.204-11.624 11.624-11.625 6.42 0 11.624 5.204 11.625 11.625 0 6.42-5.204 11.624-11.625 11.624-6.42 0-11.624-5.204-11.624-11.624z" fill="#6a704c" data-fill-palette-color="primary"></path></g><g id="text-1"><path d="M13.483 188.686l8.172 1.064-5.706 5.915c1.817 0.227 3.622 0.458 5.413 0.693 1.796 0.227 3.609 0.451 5.44 0.674v0l0.615 1.742 1.005-0.355-1.522-4.308-1.005 0.355 0.524 1.484c-1.448-0.177-2.875-0.345-4.28-0.502-1.399-0.159-2.821-0.313-4.266-0.463v0c1.021-0.992 2.029-1.998 3.025-3.018 0.999-1.013 2.005-2.047 3.018-3.102v0l0.599 1.695 1.005-0.355-1.667-4.72-1.006 0.355 0.643 1.819-1.267 1.32c-1.114-0.166-2.217-0.322-3.31-0.467-1.092-0.145-2.255-0.298-3.489-0.458v0c0.93-0.924 1.913-1.921 2.949-2.991 1.036-1.07 2.062-2.129 3.077-3.177v0l0.535 1.513 1.005-0.355-1.624-4.596-1.005 0.355 0.717 2.03c-1.287 1.316-2.557 2.627-3.812 3.932-1.251 1.296-2.512 2.603-3.783 3.921z" fill="#6a704c" data-fill-palette-color="secondary"></path><path d="M20.752 205.69l2.52 4.605 0.935-0.512-0.965-1.763 3.964-2.169c0.475-0.26 0.967-0.398 1.475-0.414 0.505-0.022 1.005 0.06 1.499 0.245v0c0.466 0.161 0.899 0.423 1.297 0.783 0.404 0.358 0.741 0.783 1.011 1.276v0c0.337 0.687 0.412 1.302 0.223 1.846-0.186 0.549-0.535 0.983-1.047 1.302v0l-5.273 2.885-1.019-1.862-0.935 0.512 2.524 4.614 0.936-0.512-0.97-1.772 5.54-3.032c0.779-0.465 1.276-1.088 1.489-1.868 0.213-0.78 0.081-1.607-0.396-2.48v0c-0.509-0.902-1.176-1.571-2.001-2.007-0.822-0.445-1.704-0.626-2.646-0.543v0l1.108-0.513 10.208-5.585-1.502-2.744-0.935 0.512 0.965 1.764-16.051 8.782-1.019-1.862z" fill="#6a704c" data-fill-palette-color="secondary"></path><path d="M39.968 219.402v0c0.408 0.574 0.618 1.209 0.632 1.906 0.015 0.687-0.137 1.343-0.457 1.969v0c-1.111-0.722-2.217-1.443-3.318-2.163-1.102-0.72-2.211-1.439-3.327-2.157v0c0.433-0.466 0.931-0.811 1.493-1.037 0.566-0.22 1.146-0.321 1.74-0.303v0c0.621 0.032 1.215 0.196 1.781 0.491 0.571 0.3 1.056 0.732 1.456 1.294zM35.421 227.007v0l0.268-1.025c-0.512-0.101-0.994-0.294-1.446-0.579-0.442-0.284-0.826-0.654-1.152-1.112v0c-0.498-0.701-0.765-1.45-0.8-2.247-0.035-0.797 0.143-1.534 0.534-2.211v0c1.294 0.816 2.57 1.641 3.827 2.475 1.263 0.83 2.533 1.659 3.81 2.486v0c0.335-0.463 0.609-0.948 0.822-1.456 0.207-0.504 0.332-1.004 0.377-1.501v0c0.067-0.537 0.03-1.068-0.109-1.592-0.14-0.524-0.372-1.014-0.698-1.472v0c-0.431-0.607-0.948-1.095-1.551-1.464-0.604-0.359-1.241-0.6-1.91-0.723v0c-0.667-0.132-1.346-0.118-2.038 0.042-0.692 0.16-1.333 0.449-1.924 0.869v0c-0.607 0.431-1.091 0.942-1.453 1.531-0.356 0.585-0.593 1.223-0.709 1.911v0c-0.115 0.68-0.099 1.362 0.047 2.047 0.156 0.687 0.449 1.333 0.881 1.94v0c0.408 0.574 0.891 1.032 1.45 1.374 0.549 0.34 1.14 0.576 1.774 0.707z" fill="#6a704c" data-fill-palette-color="secondary"></path><path d="M37.687 231.785l3.44 3.966 0.805-0.699-1.317-1.519 3.413-2.96c0.424-0.368 0.896-0.62 1.414-0.756 0.518-0.136 1.03-0.15 1.537-0.042v0c0.47 0.077 0.928 0.239 1.376 0.486 0.443 0.252 0.844 0.585 1.203 1v0l0.877-0.694c-0.285-0.308-0.609-0.574-0.973-0.796-0.363-0.223-0.761-0.402-1.193-0.538v0c-0.441-0.146-0.898-0.225-1.372-0.234-0.474-0.01-0.947 0.06-1.418 0.209v0c0.217-0.215 0.361-0.353 0.432-0.416 0.066-0.058 0.213-0.194 0.439-0.408v0l1.036-1.006-1.876-2.163-0.805 0.699 1.284 1.48-6.106 5.296-1.39-1.604z" fill="#6a704c" data-fill-palette-color="secondary"></path><path d="M55.695 237.168v0c0.51 0.485 0.838 1.068 0.984 1.749 0.146 0.671 0.122 1.345-0.071 2.02v0c-1.229-0.496-2.452-0.992-3.672-1.488-1.219-0.496-2.445-0.99-3.678-1.481v0c0.336-0.54 0.758-0.974 1.267-1.303 0.514-0.324 1.064-0.534 1.651-0.63v0c0.615-0.087 1.229-0.04 1.842 0.14 0.618 0.186 1.176 0.516 1.677 0.993zM52.686 245.502v0l0.067-1.057c-0.522-0.001-1.032-0.099-1.53-0.292-0.488-0.194-0.936-0.484-1.343-0.871v0c-0.623-0.592-1.028-1.277-1.215-2.053-0.187-0.776-0.153-1.533 0.101-2.272v0c1.426 0.553 2.836 1.119 4.229 1.697 1.398 0.573 2.803 1.143 4.216 1.711v0c0.241-0.518 0.417-1.047 0.528-1.586 0.106-0.534 0.134-1.05 0.083-1.546v0c-0.037-0.54-0.175-1.054-0.412-1.541-0.237-0.487-0.559-0.924-0.967-1.312v0c-0.54-0.513-1.14-0.893-1.802-1.14-0.662-0.237-1.333-0.352-2.013-0.344v0c-0.68-0.002-1.344 0.141-1.993 0.431-0.649 0.289-1.223 0.696-1.721 1.221v0c-0.513 0.54-0.891 1.133-1.134 1.78-0.238 0.643-0.348 1.313-0.33 2.012v0c0.017 0.689 0.163 1.356 0.438 2 0.284 0.644 0.696 1.223 1.236 1.736v0c0.51 0.485 1.072 0.842 1.686 1.071 0.604 0.229 1.23 0.347 1.876 0.355z" fill="#6a704c" data-fill-palette-color="secondary"></path><path d="M72.478 259.766v0c0.666-0.158 1.29-0.423 1.87-0.797 0.579-0.384 1.07-0.888 1.475-1.514v0c0.393-0.608 0.652-1.263 0.775-1.965 0.118-0.706 0.11-1.392-0.022-2.058v0c-0.152-0.663-0.431-1.29-0.838-1.884-0.403-0.599-0.916-1.101-1.541-1.505v0c-0.625-0.404-1.288-0.664-1.988-0.778-0.702-0.124-1.381-0.115-2.036 0.025v0c-0.674 0.145-1.303 0.419-1.887 0.823-0.584 0.404-1.073 0.91-1.466 1.519v0c-0.404 0.625-0.668 1.281-0.789 1.968-0.122 0.687-0.107 1.362 0.045 2.025v0c0.133 0.667 0.394 1.291 0.783 1.873 0.399 0.58 0.916 1.076 1.553 1.488v0c0.625 0.404 1.29 0.673 1.994 0.806 0.708 0.127 1.399 0.119 2.072-0.026zM67.171 255.39v0c-0.12-0.513-0.133-1.041-0.039-1.585 0.094-0.544 0.303-1.066 0.626-1.566v0c0.316-0.489 0.703-0.887 1.161-1.197 0.458-0.309 0.954-0.528 1.489-0.657v0c0.534-0.114 1.072-0.125 1.616-0.03 0.544 0.094 1.06 0.299 1.549 0.615v0c0.483 0.313 0.885 0.701 1.205 1.166 0.314 0.461 0.529 0.959 0.643 1.492v0c0.118 0.552 0.131 1.1 0.037 1.644-0.094 0.544-0.299 1.06-0.615 1.549v0c-0.324 0.5-0.714 0.905-1.172 1.213-0.458 0.309-0.953 0.508-1.487 0.598v0c-0.541 0.126-1.086 0.14-1.636 0.043-0.555-0.101-1.074-0.308-1.558-0.621v0c-0.489-0.316-0.887-0.703-1.196-1.16-0.309-0.458-0.516-0.959-0.623-1.504z" fill="#6a704c" data-fill-palette-color="secondary"></path><path d="M74.364 268.957l-0.468 0.958 4.725 2.31 0.468-0.958-2.08-1.017 3.064-6.266c0.071-0.146 0.141-0.296 0.21-0.452 0.065-0.164 0.138-0.328 0.218-0.492v0c-0.03 0.354 0.003 0.71 0.1 1.066 0.094 0.362 0.262 0.735 0.505 1.118v0c0.212 0.383 0.502 0.739 0.868 1.068 0.366 0.33 0.793 0.614 1.279 0.851v0c0.657 0.321 1.338 0.5 2.043 0.536 0.715 0.033 1.394-0.053 2.037-0.258v0c0.652-0.209 1.244-0.548 1.776-1.02 0.529-0.465 0.954-1.026 1.274-1.682v0c0.318-0.651 0.497-1.324 0.536-2.021 0.039-0.697-0.055-1.375-0.281-2.036v0c-0.224-0.652-0.571-1.244-1.042-1.776-0.462-0.535-1.021-0.963-1.678-1.284v0c-0.979-0.479-1.925-0.647-2.838-0.506-0.919 0.138-1.672 0.46-2.257 0.965v0c0.175-0.359 0.342-0.73 0.498-1.113 0.154-0.377 0.323-0.754 0.508-1.13v0l-2.645-1.294-0.469 0.958 1.834 0.897-6.543 13.381zM87.436 258.588v0c0.511 0.25 0.948 0.58 1.312 0.991 0.367 0.405 0.645 0.846 0.834 1.324v0c0.189 0.522 0.273 1.068 0.251 1.637-0.031 0.572-0.182 1.135-0.453 1.688v0c-0.265 0.541-0.613 1-1.046 1.376-0.439 0.373-0.921 0.642-1.446 0.808v0c-0.498 0.156-1.021 0.216-1.569 0.182-0.548-0.034-1.078-0.177-1.589-0.427v0c-0.535-0.262-0.985-0.598-1.349-1.009-0.364-0.412-0.64-0.863-0.829-1.355v0c-0.183-0.534-0.258-1.083-0.223-1.647 0.031-0.557 0.179-1.107 0.444-1.647v0c0.253-0.517 0.588-0.963 1.005-1.34 0.414-0.37 0.877-0.645 1.387-0.825v0c0.507-0.174 1.042-0.244 1.605-0.209 0.557 0.031 1.113 0.182 1.666 0.453z" fill="#6a704c" data-fill-palette-color="secondary"></path><path d="M90.406 276.287l-0.343 1.01 4.98 1.691 0.343-1.01-2.192-0.744 2.242-6.605c0.052-0.154 0.102-0.312 0.151-0.475 0.044-0.171 0.095-0.343 0.154-0.516v0c0.015 0.355 0.093 0.704 0.235 1.045 0.139 0.348 0.354 0.696 0.642 1.044v0c0.259 0.352 0.591 0.669 0.997 0.95 0.405 0.281 0.864 0.508 1.377 0.682v0c0.692 0.235 1.391 0.326 2.095 0.271 0.713-0.058 1.376-0.23 1.987-0.515v0c0.62-0.29 1.164-0.702 1.632-1.237 0.465-0.528 0.816-1.139 1.05-1.831v0c0.233-0.686 0.324-1.377 0.275-2.072-0.05-0.696-0.229-1.357-0.538-1.984v0c-0.305-0.618-0.725-1.161-1.259-1.629-0.526-0.472-1.135-0.825-1.828-1.06v0c-1.032-0.35-1.992-0.397-2.879-0.141-0.894 0.254-1.6 0.669-2.116 1.243v0c0.128-0.378 0.246-0.767 0.353-1.167 0.105-0.393 0.225-0.789 0.36-1.186v0l-2.788-0.946-0.343 1.009 1.932 0.656-4.789 14.105zM102.054 264.34v0c0.538 0.183 1.014 0.455 1.427 0.817 0.415 0.356 0.747 0.758 0.995 1.207v0c0.254 0.494 0.406 1.024 0.457 1.592 0.042 0.572-0.036 1.149-0.234 1.732v0c-0.194 0.57-0.481 1.07-0.863 1.498-0.388 0.426-0.832 0.754-1.331 0.985v0c-0.474 0.218-0.986 0.344-1.534 0.38-0.548 0.035-1.091-0.038-1.63-0.221v0c-0.564-0.192-1.053-0.468-1.466-0.83-0.413-0.362-0.745-0.775-0.995-1.239v0c-0.25-0.507-0.393-1.041-0.431-1.604-0.04-0.557 0.037-1.12 0.231-1.691v0c0.185-0.545 0.461-1.03 0.827-1.457 0.364-0.42 0.788-0.751 1.271-0.994v0c0.481-0.237 1.003-0.374 1.566-0.412 0.557-0.04 1.127 0.039 1.71 0.237z" fill="#6a704c" data-fill-palette-color="secondary"></path><path d="M117.422 276.41v0c0.566-0.386 1.052-0.857 1.46-1.415 0.403-0.565 0.681-1.212 0.835-1.941v0c0.149-0.709 0.156-1.413 0.02-2.113-0.143-0.701-0.396-1.339-0.759-1.913v0c-0.379-0.564-0.865-1.05-1.457-1.459-0.59-0.415-1.25-0.699-1.978-0.853v0c-0.729-0.154-1.44-0.158-2.135-0.014-0.7 0.136-1.33 0.387-1.891 0.753v0c-0.577 0.376-1.066 0.858-1.467 1.444-0.4 0.587-0.675 1.234-0.825 1.943v0c-0.154 0.729-0.164 1.435-0.032 2.121 0.132 0.685 0.388 1.31 0.768 1.874v0c0.363 0.575 0.831 1.064 1.402 1.468 0.58 0.399 1.241 0.677 1.983 0.833v0c0.729 0.154 1.445 0.166 2.15 0.038 0.706-0.135 1.348-0.39 1.926-0.766zM110.899 274.225v0c-0.296-0.436-0.497-0.924-0.604-1.466-0.107-0.541-0.099-1.104 0.023-1.686v0c0.12-0.57 0.338-1.08 0.655-1.533 0.317-0.452 0.702-0.834 1.155-1.147v0c0.457-0.298 0.956-0.501 1.498-0.608 0.541-0.107 1.097-0.101 1.667 0.02v0c0.563 0.119 1.077 0.338 1.542 0.657 0.459 0.318 0.837 0.706 1.135 1.163v0c0.308 0.473 0.516 0.98 0.624 1.522 0.107 0.541 0.101 1.097-0.02 1.666v0c-0.123 0.583-0.343 1.1-0.659 1.553-0.317 0.452-0.708 0.816-1.174 1.091v0c-0.46 0.311-0.964 0.52-1.512 0.625-0.555 0.104-1.114 0.097-1.677-0.021v0c-0.57-0.12-1.08-0.338-1.532-0.655-0.452-0.317-0.826-0.71-1.121-1.181z" fill="#6a704c" data-fill-palette-color="secondary"></path><path d="M122.664 278.58l5.219 0.57 0.115-1.06-1.998-0.218 0.491-4.492c0.061-0.559 0.235-1.064 0.523-1.515 0.288-0.452 0.654-0.81 1.098-1.075v0c0.396-0.263 0.843-0.456 1.34-0.579 0.496-0.116 1.017-0.144 1.562-0.085v0l0.172-1.105c-0.419-0.032-0.837-0.006-1.255 0.078-0.418 0.084-0.831 0.222-1.241 0.416v0c-0.423 0.192-0.811 0.446-1.165 0.761-0.354 0.315-0.654 0.688-0.899 1.117v0c0.013-0.305 0.025-0.505 0.035-0.599 0.01-0.087 0.025-0.287 0.045-0.597v0l0.076-1.442-2.847-0.311-0.115 1.059 1.948 0.213-0.878 8.035-2.11-0.231z" fill="#6a704c" data-fill-palette-color="secondary"></path><path d="M136.366 279.632l3.349 0.088 0.028-1.066-2.233-0.058 0.212-8.049 3.156 0.082 0.029-1.096-3.157-0.083 0.175-6.638-1.117-0.029-0.174 6.638-2.365-0.062-0.029 1.096 2.365 0.062z" fill="#6a704c" data-fill-palette-color="secondary"></path><path d="M154.241 276.199v0l0.095 1.225 0.159 1.404 2.906-0.225-0.076-0.982-1.924 0.149-0.711-9.202-3.128 0.241 0.082 1.063 2.015-0.155 0.348 4.504c0.042 0.547-0.034 1.058-0.228 1.535-0.187 0.476-0.461 0.884-0.822 1.225v0c-0.372 0.375-0.797 0.673-1.275 0.893-0.486 0.214-1.009 0.343-1.569 0.386v0c-0.765 0.025-1.36-0.16-1.784-0.555-0.418-0.395-0.669-0.889-0.756-1.479v0l-0.546-7.066-3.118 0.24 0.082 1.063 2.005-0.154 0.486 6.296c0.11 0.901 0.477 1.609 1.101 2.125 0.617 0.516 1.425 0.735 2.424 0.658v0c0.992-0.077 1.873-0.403 2.643-0.978 0.763-0.575 1.294-1.312 1.591-2.211z" fill="#6a704c" data-fill-palette-color="secondary"></path><path d="M161.521 277.895l5.139-1.069-0.217-1.044-1.968 0.41-0.921-4.424c-0.11-0.53-0.099-1.041 0.034-1.531 0.126-0.49 0.35-0.944 0.671-1.364v0c0.29-0.399 0.666-0.737 1.127-1.012 0.46-0.282 0.965-0.481 1.515-0.595v0c0.756-0.123 1.366-0.015 1.83 0.324 0.471 0.338 0.785 0.798 0.941 1.381v0l1.225 5.885-2.078 0.432 0.217 1.044 5.149-1.072-0.217-1.044-1.978 0.412-1.287-6.183c-0.218-0.881-0.669-1.537-1.353-1.969-0.684-0.431-1.514-0.546-2.488-0.343v0c-0.994 0.207-1.828 0.65-2.503 1.33-0.676 0.673-1.106 1.464-1.29 2.373v0c-0.082-0.294-0.154-0.559-0.217-0.794-0.071-0.241-0.147-0.509-0.229-0.803v0l-0.221-0.96-2.803 0.583 0.217 1.044 1.919-0.399 1.646 7.912-2.077 0.433z" fill="#6a704c" data-fill-palette-color="secondary"></path><path d="M178.045 274.103l5.009-1.571-0.319-1.018-1.947 0.611-2.739-8.729-3.061 0.961 0.319 1.017 1.996-0.626 2.419 7.712-1.996 0.626zM177.306 259.841v0c-0.077-0.245-0.228-0.422-0.453-0.528-0.221-0.115-0.444-0.137-0.67-0.067v0c-0.207 0.065-0.371 0.209-0.493 0.432-0.124 0.216-0.147 0.447-0.07 0.692v0c0.075 0.239 0.226 0.415 0.453 0.528 0.225 0.107 0.441 0.128 0.648 0.063v0c0.226-0.071 0.398-0.213 0.515-0.427 0.122-0.223 0.145-0.453 0.07-0.693z" fill="#6a704c" data-fill-palette-color="secondary"></path><path d="M188.921 270.29l3.113-1.237-0.393-0.991-2.076 0.825-2.974-7.482 2.934-1.167-0.405-1.019-2.934 1.167-2.453-6.171-1.038 0.412 2.453 6.171-2.199 0.874 0.406 1.019 2.198-0.874z" fill="#6a704c" data-fill-palette-color="secondary"></path><path d="M201.156 272.233l4.636-2.464-0.5-0.941-1.534 0.815c-0.087-2.79-0.165-5.562-0.234-8.316-0.059-2.751-0.133-5.522-0.22-8.311v0l1.758-0.934-0.501-0.942-4.205 2.235 0.501 0.942 1.389-0.739c0.038 1.543 0.078 3.075 0.119 4.594 0.035 1.522 0.101 3.009 0.197 4.46v0c-1.2-0.903-2.419-1.789-3.654-2.657-1.227-0.866-2.463-1.75-3.709-2.652v0l1.542-0.819-0.5-0.942-4.447 2.364 0.5 0.941 1.847-0.981c1.406 1.016 2.806 2.02 4.199 3.011 1.384 0.989 2.78 1.972 4.189 2.948v0c0.026 1.059 0.048 2.117 0.065 3.174 0.02 1.062 0.056 2.124 0.106 3.186v0l-2.044 1.086z" fill="#6a704c" data-fill-palette-color="secondary"></path><path d="M228.578 245.661l2.316-1.947-0.686-0.816-1.539 1.293-5.886-7.003-0.692 0.581c0.231 0.328 0.472 0.656 0.722 0.985 0.246 0.324 0.491 0.631 0.735 0.922v0c-0.686-0.343-1.49-0.468-2.411-0.375-0.917 0.098-1.784 0.492-2.603 1.18v0c-0.58 0.488-1.03 1.047-1.349 1.677-0.309 0.631-0.498 1.285-0.566 1.962v0c-0.065 0.691 0.011 1.375 0.226 2.051 0.211 0.672 0.545 1.28 1.002 1.824v0c0.479 0.57 1.027 1.011 1.643 1.324 0.612 0.308 1.267 0.492 1.963 0.553v0c0.687 0.06 1.365-0.011 2.036-0.213 0.672-0.211 1.298-0.56 1.878-1.048v0c0.42-0.353 0.766-0.741 1.038-1.164 0.276-0.418 0.477-0.847 0.602-1.288v0c0.127-0.417 0.196-0.824 0.207-1.222 0.01-0.398-0.042-0.76-0.158-1.087v0c0.152 0.181 0.29 0.345 0.411 0.489 0.122 0.145 0.253 0.301 0.392 0.467v0zM219.233 241.312v0c0.446-0.375 0.93-0.645 1.454-0.811 0.524-0.166 1.06-0.232 1.61-0.199v0c0.539 0.042 1.062 0.191 1.568 0.446 0.507 0.246 0.955 0.599 1.343 1.06v0c0.383 0.456 0.654 0.958 0.813 1.505 0.16 0.538 0.209 1.08 0.147 1.627v0c-0.047 0.544-0.197 1.059-0.451 1.547-0.258 0.482-0.61 0.91-1.055 1.284v0c-0.446 0.375-0.918 0.643-1.418 0.807-0.504 0.158-1.019 0.224-1.545 0.198v0c-0.56-0.025-1.101-0.163-1.621-0.415-0.521-0.252-0.98-0.613-1.376-1.084v0c-0.375-0.446-0.645-0.93-0.811-1.454-0.166-0.524-0.228-1.055-0.186-1.595v0c0.018-0.537 0.159-1.058 0.424-1.563 0.265-0.506 0.633-0.956 1.104-1.353z" fill="#6a704c" data-fill-palette-color="secondary"></path><path d="M238.982 235.682l-3.136-7.622 7.968 2.015c-0.706-1.69-1.402-3.371-2.088-5.043-0.695-1.671-1.401-3.357-2.117-5.055v0l1.206-1.4-0.808-0.696-2.982 3.461 0.807 0.696 1.028-1.192c0.565 1.345 1.129 2.666 1.691 3.964 0.557 1.293 1.129 2.604 1.717 3.933v0c-1.368-0.393-2.742-0.768-4.123-1.127-1.376-0.363-2.773-0.723-4.191-1.078v0l1.174-1.362-0.808-0.696-3.268 3.792 0.808 0.696 1.259-1.461 1.776 0.444c0.409 1.05 0.822 2.084 1.238 3.105 0.416 1.02 0.862 2.105 1.336 3.255v0c-1.264-0.348-2.618-0.706-4.061-1.073-1.443-0.368-2.872-0.732-4.286-1.093v0l1.048-1.216-0.808-0.696-3.182 3.692 0.808 0.696 1.405-1.63c1.781 0.463 3.55 0.915 5.306 1.355 1.746 0.442 3.507 0.887 5.283 1.336z" fill="#6a704c" data-fill-palette-color="secondary"></path><path d="M255.214 212.651l1.585-2.578-0.909-0.558-1.052 1.713-7.794-4.79-0.474 0.77c0.323 0.238 0.654 0.474 0.996 0.707 0.335 0.23 0.665 0.444 0.987 0.643v0c-0.759-0.109-1.561 0.026-2.405 0.404-0.839 0.382-1.538 1.029-2.098 1.941v0c-0.397 0.646-0.647 1.318-0.751 2.017-0.094 0.697-0.067 1.377 0.081 2.04v0c0.157 0.676 0.444 1.301 0.861 1.876 0.412 0.571 0.921 1.042 1.526 1.414v0c0.634 0.39 1.294 0.636 1.977 0.739 0.678 0.099 1.357 0.067 2.037-0.095v0c0.67-0.16 1.292-0.441 1.866-0.844 0.571-0.412 1.055-0.941 1.451-1.587v0c0.287-0.467 0.493-0.944 0.618-1.432 0.131-0.484 0.185-0.955 0.165-1.412v0c-0.01-0.435-0.073-0.844-0.189-1.224-0.116-0.381-0.28-0.708-0.493-0.983v0c0.202 0.124 0.384 0.236 0.545 0.335 0.161 0.099 0.334 0.206 0.519 0.319v0zM244.975 211.471v0c0.305-0.496 0.679-0.905 1.124-1.228 0.445-0.323 0.933-0.555 1.465-0.696v0c0.525-0.13 1.068-0.154 1.629-0.072 0.559 0.073 1.095 0.268 1.608 0.583v0c0.508 0.312 0.923 0.702 1.247 1.172 0.321 0.46 0.539 0.959 0.653 1.497v0c0.127 0.531 0.147 1.067 0.059 1.61-0.093 0.539-0.292 1.056-0.596 1.552v0c-0.305 0.496-0.668 0.9-1.091 1.213-0.428 0.309-0.896 0.534-1.404 0.674v0c-0.539 0.153-1.096 0.193-1.669 0.119-0.574-0.075-1.123-0.273-1.648-0.596v0c-0.496-0.305-0.905-0.679-1.228-1.124-0.323-0.445-0.549-0.929-0.679-1.455v0c-0.152-0.515-0.183-1.054-0.091-1.617 0.092-0.563 0.299-1.107 0.621-1.632z" fill="#6a704c" data-fill-palette-color="secondary"></path><path d="M258.608 206.475l2.298-4.719-0.958-0.467-0.894 1.835-8.225-4.005-1.404 2.884 0.958 0.467 0.916-1.88 7.266 3.538-0.915 1.88zM247.735 197.217v0c-0.231-0.113-0.463-0.124-0.695-0.034-0.235 0.081-0.405 0.228-0.509 0.441v0c-0.095 0.195-0.103 0.413-0.025 0.655 0.072 0.238 0.224 0.414 0.456 0.526v0c0.225 0.11 0.457 0.121 0.695 0.034 0.232-0.09 0.396-0.233 0.49-0.428v0c0.104-0.213 0.118-0.436 0.043-0.668-0.078-0.241-0.23-0.417-0.455-0.526z" fill="#6a704c" data-fill-palette-color="secondary"></path><path d="M263.307 195.953l1.24-3.112-0.99-0.395-0.827 2.075-7.48-2.979 1.168-2.933-1.019-0.406-1.168 2.933-6.169-2.456-0.413 1.037 6.169 2.457-0.875 2.198 1.018 0.406 0.876-2.198z" fill="#6a704c" data-fill-palette-color="secondary"></path><path d="M267.135 182.031v0c-0.202-0.332-0.454-0.605-0.756-0.818-0.302-0.214-0.612-0.37-0.929-0.468v0c-0.55-0.17-1.025-0.19-1.427-0.059-0.402 0.131-0.763 0.338-1.085 0.621v0c-0.319 0.298-0.606 0.631-0.862 0.999-0.255 0.367-0.517 0.708-0.783 1.022v0c-0.25 0.305-0.521 0.551-0.813 0.737-0.298 0.184-0.638 0.217-1.019 0.099v0c-0.291-0.09-0.524-0.219-0.699-0.386-0.181-0.169-0.315-0.356-0.401-0.559v0c-0.071-0.206-0.098-0.438-0.082-0.696 0.007-0.253 0.046-0.492 0.116-0.718v0c0.09-0.291 0.212-0.558 0.364-0.802 0.151-0.237 0.332-0.454 0.542-0.65v0l1.358 0.419 0.306-0.989-1.902-0.588c-0.209 0.127-0.404 0.275-0.584 0.446-0.174 0.173-0.338 0.36-0.492 0.56v0c-0.177 0.25-0.31 0.475-0.399 0.674-0.09 0.199-0.17 0.412-0.24 0.638v0c-0.096 0.31-0.143 0.668-0.141 1.072-0.002 0.396 0.067 0.768 0.208 1.117v0c0.14 0.348 0.35 0.654 0.63 0.917 0.278 0.27 0.65 0.477 1.115 0.621v0c0.576 0.178 1.059 0.196 1.45 0.055 0.395-0.133 0.736-0.353 1.023-0.661v0c0.28-0.31 0.547-0.656 0.799-1.039 0.251-0.376 0.508-0.714 0.771-1.015v0c0.254-0.318 0.536-0.553 0.846-0.706 0.316-0.15 0.697-0.157 1.143-0.019v0c0.317 0.098 0.564 0.238 0.741 0.421 0.186 0.178 0.326 0.388 0.422 0.63v0c0.091 0.255 0.139 0.514 0.142 0.777 0.002 0.27-0.038 0.534-0.118 0.793v0c-0.118 0.382-0.26 0.738-0.426 1.069-0.171 0.323-0.41 0.617-0.719 0.883v0l-1.329-0.411-0.3 0.97 1.901 0.588c0.506-0.283 0.905-0.67 1.198-1.16 0.293-0.49 0.526-1.014 0.698-1.57v0c0.182-0.588 0.242-1.115 0.181-1.581-0.068-0.467-0.217-0.878-0.448-1.233z" fill="#6a704c" data-fill-palette-color="secondary"></path></g></svg></g></svg></g></svg></g></svg></g><defs></defs></svg><rect width="279.72" height="279.72" fill="none" stroke="none" visibility="hidden"></rect></g></svg></g></svg>