<svg width="315" height="393" viewBox="0 0 315 393" fill="none" xmlns="http://www.w3.org/2000/svg">
<rect width="315" height="393" fill="white"/>
<rect width="315" height="393" rx="6" fill="white"/>
<rect x="30" y="315" width="255" height="48" rx="6" fill="#D5DDE5"/>
<rect x="54.1216" y="330" width="206.55" height="19" rx="6" fill="#D5DDE5"/>
<rect x="93" y="160" width="130" height="22" rx="6" fill="#D5DDE5"/>
<rect x="130" y="190" width="82" height="17" rx="6" fill="#D5DDE5"/>
<rect x="108" y="190.667" width="12" height="14.6667" rx="6" fill="#D5DDE5"/>
<rect x="112" y="194.667" width="4" height="4" rx="2" fill="#D5DDE5"/>
<rect x="45" y="227" width="70" height="30" rx="6" fill="#D5DDE5"/>
<rect x="53" y="235" width="55" height="14" rx="6" fill="#D5DDE5"/>
<rect x="123" y="227" width="70" height="30" rx="6" fill="#D5DDE5"/>
<rect x="131" y="235" width="55" height="14" rx="6" fill="#D5DDE5"/>
<rect x="84" y="265" width="70" height="30" rx="6" fill="#D5DDE5"/>
<rect x="92" y="273" width="55" height="14" rx="6" fill="#D5DDE5"/>
<rect x="201" y="227" width="70" height="30" rx="6" fill="#D5DDE5"/>
<rect x="209" y="235" width="55" height="14" rx="6" fill="#D5DDE5"/>
<rect x="162" y="265" width="70" height="30" rx="6" fill="#D5DDE5"/>
<rect x="170" y="273" width="55" height="14" rx="6" fill="#D5DDE5"/>
<rect x="109.5" y="40.5" width="99" height="99" rx="49.5" stroke="#D5DDE5"/>
<mask id="mask0_793_2177" style="mask-type:alpha" maskUnits="userSpaceOnUse" x="119" y="50" width="80" height="80">
<circle cx="159" cy="90" r="40" fill="#D5DDE5"/>
</mask>
<g mask="url(#mask0_793_2177)">
<rect x="95.5132" y="50.6353" width="120" height="80" fill="#D5DDE5"/>
</g>
</svg>
