<svg width="315" height="437" viewBox="0 0 315 437" fill="none" xmlns="http://www.w3.org/2000/svg">
<rect width="315" height="437" fill="white"/>
<rect width="315" height="437" rx="6" fill="white"/>
<rect x="38" y="187" width="238" height="17" rx="6" fill="#D5DDE5"/>
<rect x="83" y="164" width="148" height="19" rx="6" fill="#D5DDE5"/>
<rect x="108" y="40" width="100" height="100" rx="6" fill="#D5DDE5"/>
<rect x="108" y="40" width="100" height="100" rx="6" fill="#D5DDE5"/>
<rect x="30" y="359" width="255" height="48" rx="6" fill="#D5DDE5"/>
<rect x="54.1216" y="374" width="206.55" height="19" rx="6" fill="#D5DDE5"/>
<rect x="62" y="260" width="98" height="17" rx="6" fill="#D5DDE5"/>
<rect x="62" y="318" width="216" height="17" rx="6" fill="#D5DDE5"/>
<rect x="62" y="289" width="94" height="17" rx="6" fill="#D5DDE5"/>
<rect x="186" y="218" width="63" height="17" rx="6" fill="#D5DDE5"/>
<rect x="67.6665" y="217.667" width="16.6667" height="15.85" rx="6" fill="#D5DDE5"/>
<rect x="89.6665" y="217.667" width="16.6667" height="15.85" rx="6" fill="#D5DDE5"/>
<rect x="111.667" y="217.667" width="16.6667" height="15.85" rx="6" fill="#D5DDE5"/>
<rect x="133.667" y="217.667" width="16.6667" height="15.85" rx="6" fill="#D5DDE5"/>
<rect x="155.667" y="217.667" width="16.6667" height="15.85" rx="6" fill="#D5DDE5"/>
<rect x="34" y="261" width="12" height="14.6667" rx="6" fill="#D5DDE5"/>
<rect x="34" y="290" width="12" height="14.6667" rx="6" fill="#D5DDE5"/>
<rect x="34" y="319" width="12" height="14.6667" rx="6" fill="#D5DDE5"/>
</svg>
