<svg width="315" height="418" viewBox="0 0 315 418" fill="none" xmlns="http://www.w3.org/2000/svg">
<rect width="315" height="418" fill="white"/>
<rect width="315" height="418" rx="6" fill="white"/>
<rect x="108" y="50" width="100" height="100" rx="6" fill="#D5DDE5"/>
<rect x="59" y="170" width="196" height="22" rx="6" fill="#D5DDE5"/>
<rect x="129" y="200" width="82" height="17" rx="6" fill="#D5DDE5"/>
<rect x="107" y="200.667" width="12" height="14.6667" rx="6" fill="#D5DDE5"/>
<rect x="34" y="242" width="12" height="14.6667" rx="6" fill="#D5DDE5"/>
<rect x="34" y="271" width="12" height="14.6667" rx="6" fill="#D5DDE5"/>
<rect x="34" y="300" width="12" height="14.6667" rx="6" fill="#D5DDE5"/>
<rect x="111" y="204.667" width="4" height="4" rx="2" fill="#D5DDE5"/>
<rect x="30" y="340" width="257" height="48" rx="6" fill="#D5DDE5"/>
<rect x="54" y="355" width="208" height="19" rx="6" fill="#D5DDE5"/>
<rect x="16" y="16" width="71" height="24" rx="6" fill="#D5DDE5"/>
<rect x="62" y="241" width="69" height="17" rx="6" fill="#D5DDE5"/>
<rect x="62" y="299" width="65" height="17" rx="6" fill="#D5DDE5"/>
<rect x="62" y="270" width="85" height="17" rx="6" fill="#D5DDE5"/>
</svg>
