<svg xmlns="http://www.w3.org/2000/svg" version="1.0" preserveAspectRatio="xMidYMid meet" viewBox="45 124.9 210 30.1">
<metadata>
Created by potrace 1.10, written by Peter Selinger 2001-2011
</metadata>
<g transform="translate(0.000000,300.000000) scale(0.100000,-0.100000)" fill="#000000" stroke="none">
<path d="M482 1733 c-48 -42 -31 -98 38 -124 53 -20 70 -40 51 -63 -21 -25 -51 -19 -87 20 l-34 35 0 -38 0 -38 58 -3 c70 -3 102 19 102 72 0 39 -20 60 -75 78 -41 14 -58 43 -33 59 23 15 39 10 69 -22 l29 -31 0 33 c0 34 -1 34 -49 37 -35 2 -54 -2 -69 -15z"/>
<path d="M691 1736 c-55 -31 -70 -133 -27 -183 21 -24 32 -28 76 -28 44 0 55 4 76 28 19 22 24 39 24 83 0 48 -4 60 -29 85 -33 32 -78 38 -120 15z m77 -8 c7 -7 12 -43 12 -93 0 -83 -9 -105 -42 -105 -26 0 -38 32 -38 105 0 36 5 75 10 86 12 21 40 25 58 7z"/>
<path d="M868 1743 c8 -3 12 -32 12 -93 0 -84 1 -90 26 -109 35 -28 97 -28 124 -1 17 17 20 33 20 109 0 62 4 91 13 94 6 3 -1 6 -18 6 -20 0 -26 -2 -16 -8 17 -11 12 -174 -6 -192 -16 -16 -63 -15 -74 2 -14 23 -11 186 4 192 6 3 -13 5 -43 5 -30 0 -49 -2 -42 -5z"/>
<path d="M1131 1736 c-34 -19 -50 -54 -51 -107 0 -50 28 -99 57 -99 13 0 13 -2 2 -16 -12 -15 -11 -16 9 -10 18 6 24 2 31 -17 9 -24 29 -37 56 -37 17 0 45 27 45 43 0 7 -8 3 -16 -8 -13 -15 -17 -17 -21 -6 -9 24 -42 51 -63 51 -28 0 -40 30 -40 105 0 36 5 75 10 86 12 21 40 25 58 7 16 -16 16 -170 0 -186 -9 -9 -7 -12 8 -12 46 0 81 78 64 141 -19 68 -89 98 -149 65z"/>
<path d="M1367 1708 c-3 -23 -4 -44 -2 -46 1 -2 11 14 21 34 34 69 44 56 44 -59 0 -92 -2 -106 -17 -110 -10 -3 11 -5 47 -5 36 0 57 2 48 5 -16 4 -18 18 -18 109 0 57 4 104 9 104 11 0 33 -27 48 -59 11 -24 12 -23 10 19 l-2 45 -91 3 -91 3 -6 -43z"/>
<path d="M1595 1648 c-21 -57 -43 -109 -48 -115 -7 -10 -2 -13 19 -13 20 0 25 3 15 9 -10 7 -11 16 -4 37 7 22 17 30 40 32 27 3 32 -1 42 -29 9 -25 8 -34 -1 -40 -7 -4 11 -8 40 -7 39 0 50 3 44 11 -5 7 -27 58 -47 115 -21 56 -44 102 -50 102 -7 0 -30 -46 -50 -102z m40 -10 c6 -24 4 -28 -15 -28 -18 0 -21 4 -16 23 3 12 6 29 6 37 0 21 17 0 25 -32z"/>
<path d="M1768 1743 c8 -3 12 -35 12 -108 0 -73 -4 -105 -12 -108 -7 -3 26 -6 73 -6 l87 -1 4 40 c2 22 0 40 -4 40 -5 0 -8 -5 -8 -10 0 -17 -47 -60 -65 -60 -13 0 -15 17 -15 106 0 89 2 105 15 101 8 -4 17 -2 20 3 4 6 -19 10 -57 9 -35 0 -57 -3 -50 -6z"/>
<path d="M1958 1738 c8 -8 12 -46 12 -103 0 -57 -4 -95 -12 -103 -9 -9 7 -12 74 -12 l86 0 4 35 c2 19 2 35 1 35 -2 0 -14 -11 -26 -24 -12 -13 -32 -27 -44 -31 -22 -6 -23 -3 -23 44 0 39 4 51 15 51 9 0 20 -10 25 -22 7 -19 9 -13 9 27 1 48 0 49 -15 27 -24 -35 -34 -26 -34 29 0 47 1 50 23 44 12 -4 33 -19 46 -33 l23 -27 -6 25 c-3 14 -6 31 -6 38 0 8 -23 12 -82 12 -64 0 -79 -3 -70 -12z"/>
<path d="M2148 1743 c8 -3 12 -35 12 -108 0 -73 -4 -105 -12 -108 -7 -3 1 -6 17 -6 19 0 25 2 17 7 -9 6 -12 34 -10 103 l3 94 53 -102 c73 -142 86 -141 98 12 l9 115 -25 -1 c-14 0 -19 -3 -12 -6 8 -3 12 -28 12 -76 l-1 -72 -39 76 -39 76 -48 1 c-26 0 -42 -2 -35 -5z"/>
<path d="M2360 1702 l1 -47 15 35 c16 36 33 52 46 44 4 -3 8 -47 8 -99 0 -79 -3 -96 -17 -104 -14 -8 -2 -10 47 -10 36 1 57 3 48 6 -16 4 -18 18 -18 109 0 96 1 104 17 95 10 -5 23 -24 29 -43 l12 -33 1 47 1 47 -95 0 -95 0 0 -47z"/>
</g>
</svg>