<svg width="36" height="36" viewBox="0 0 36 36" fill="none" xmlns="http://www.w3.org/2000/svg">
<circle cx="18" cy="18" r="17.5" fill="white" stroke="#D5DDE5"/>
<path d="M14.1337 24.9997H11.2313V15.6528H14.1337V24.9997ZM12.6809 14.3778C11.7528 14.3778 11 13.6091 11 12.6809C11 12.2351 11.1771 11.8076 11.4923 11.4923C11.8076 11.1771 12.2351 11 12.6809 11C13.1267 11 13.5543 11.1771 13.8695 11.4923C14.1848 11.8076 14.3619 12.2351 14.3619 12.6809C14.3619 13.6091 13.6088 14.3778 12.6809 14.3778ZM24.9969 24.9997H22.1006V20.4497C22.1006 19.3653 22.0787 17.9747 20.5916 17.9747C19.0825 17.9747 18.8513 19.1528 18.8513 20.3716V24.9997H15.9519V15.6528H18.7356V16.9278H18.7762C19.1637 16.1934 20.1103 15.4184 21.5225 15.4184C24.46 15.4184 25 17.3528 25 19.8653V24.9997H24.9969Z" fill="#8F9CA9"/>
</svg>
